<svg id="Layer_1" data-name="Layer 1" xmlns="http://www.w3.org/2000/svg" xmlns:xlink="http://www.w3.org/1999/xlink" viewBox="0 0 10.38 20"><defs><style>.cls-1,.cls-2,.cls-4{fill:#fff;}.cls-1{clip-rule:evenodd;}.cls-2{fill-rule:evenodd;}.cls-3{clip-path:url(#clip-path);}</style><clipPath id="clip-path"><path class="cls-1" d="M3.1,20V10.88H0V7.32H3.1V4.7C3.1,1.66,5,0,7.67,0a25.92,25.92,0,0,1,2.74.14V3.32H8.53c-1.47,0-1.76.7-1.76,1.73V7.32h3.52l-.46,3.56H6.77V20Z"/></clipPath></defs><title>Various_SVGs</title><path class="cls-2" d="M3.1,20V10.88H0V7.32H3.1V4.7C3.1,1.66,5,0,7.67,0a25.92,25.92,0,0,1,2.74.14V3.32H8.53c-1.47,0-1.76.7-1.76,1.73V7.32h3.52l-.46,3.56H6.77V20Z"/><g class="cls-3"><rect class="cls-4" x="-1.97" y="-2" width="14.38" height="24"/></g></svg>