<svg xmlns="http://www.w3.org/2000/svg" viewBox="0 0 321.66 76.78"><defs><style>.cls-1{fill:#3d3935;}.cls-2{opacity:0.75;}.cls-3{opacity:0.5;}</style></defs><title>invisaling-black</title><g id="Layer_2" data-name="Layer 2"><path class="cls-1" d="M302.19,35.14h5.9l.1,2.46A8.67,8.67,0,0,1,315,34.4c6.48,0,10,4,10,11V61.67h-6.13V45.59c0-3.6-2.19-5.66-5.27-5.66s-5.27,2.06-5.27,5.66V61.67h-6.13Zm-51.7,26.53h-6.13V23.1h6.13Zm13.1,0h-6.13V35.14h6.13Zm-3.07-39.2a3.85,3.85,0,1,0,3.85,3.85,3.83,3.83,0,0,0-3.85-3.85M231.34,35.14h6.07V61.67h-6.07l-.09-2.78A11.91,11.91,0,0,1,223,62.42c-7.23,0-12.6-5.82-12.6-14,0-8.66,5.81-14,12.6-14a10.66,10.66,0,0,1,8.22,3.53ZM216.7,48.4c0,5.09,3.12,8.49,7.46,8.49,3.93,0,7.47-2.87,7.47-8.49,0-5.45-3.39-8.48-7.47-8.48-4.52,0-7.46,3.6-7.46,8.48m72.74,0c0-5.53-3.49-8.48-7.45-8.48-4.74,0-7.47,3.86-7.47,8.48,0,4.89,2.94,8.49,7.47,8.49,4.16,0,7.45-3.1,7.45-8.49m5.78,10.65c0,11.38-6.66,15.16-14.5,15.16a20.85,20.85,0,0,1-9.5-2.1l1.52-5.28a16.13,16.13,0,0,0,7.93,2.06c4.56,0,8.43-2.92,8.43-8.19V58.87a10.83,10.83,0,0,1-8.29,3.55c-7.15,0-12.55-5.75-12.55-14,0-7.92,5.09-14,12.57-14a10.58,10.58,0,0,1,8.24,3.53l.07-2.79h6.08Z" transform="translate(-17.4 -10.01)"/><path class="cls-1" d="M154.84,35.14l6.87,16,6.83-16h6.8L161.65,63.49,148.07,35.14Zm34.32,20.43a14.76,14.76,0,0,0,6.86,2c3,0,4.4-1.27,4.4-3s-1.09-2.82-4.41-4c-5.25-1.77-7.33-4.51-7.33-7.71,0-4.75,3.74-8.39,10-8.39A15.5,15.5,0,0,1,205.84,36l-1.36,4.75a12.11,12.11,0,0,0-5.7-1.54c-2.44,0-3.87,1.21-3.87,2.87s1.27,2.59,4.7,3.86c4.91,1.71,7,4.16,7.1,8.13,0,4.91-3.63,8.36-10.75,8.36a17.31,17.31,0,0,1-8.18-1.88Zm-72.11,6.1h-6.13V35.14h6.13ZM114,22.47a3.85,3.85,0,1,0,3.83,3.85A3.85,3.85,0,0,0,114,22.47m69.68,39.2h-6.13V35.14h6.13Zm-3.06-39.2a3.85,3.85,0,1,0,3.83,3.85,3.85,3.85,0,0,0-3.83-3.85M124,35.14h5.91l.1,2.46a8.49,8.49,0,0,1,6.85-3.2c5.93,0,9.95,4,9.95,11V61.67h-6.13v-16c0-3.41-2.21-5.75-5.28-5.75s-5.26,2.3-5.26,5.75v16H124Z" transform="translate(-17.4 -10.01)"/><path class="cls-1" d="M335,33.36a4,4,0,1,1-4.05,4,4,4,0,0,1,4.05-4m0,7.5a3.46,3.46,0,1,0-3.33-3.45A3.34,3.34,0,0,0,335,40.86M333.46,35h1.79c1.11,0,1.65.44,1.65,1.35a1.22,1.22,0,0,1-1.25,1.29L337,39.76h-.78l-1.27-2h-.78v2h-.72Zm.72,2.11h.74c.64,0,1.26,0,1.26-.79s-.56-.73-1.05-.73h-.95Z" transform="translate(-17.4 -10.01)"/></g><g id="Layer_3" data-name="Layer 3"><path class="cls-1" d="M94.18,48.4A40.84,40.84,0,0,0,81.9,43.76a27.17,27.17,0,0,1,0,9.29A40.62,40.62,0,0,0,94.18,48.4Z" transform="translate(-17.4 -10.01)"/><path class="cls-1" d="M77.54,33.23a41.25,41.25,0,0,0,5.4-12,40.68,40.68,0,0,0-12,5.4A26.5,26.5,0,0,1,77.54,33.23Z" transform="translate(-17.4 -10.01)"/><path class="cls-1" d="M51.14,22.29a27.23,27.23,0,0,1,9.3,0A41.16,41.16,0,0,0,55.79,10,41.16,41.16,0,0,0,51.14,22.29Z" transform="translate(-17.4 -10.01)"/><path class="cls-1" d="M34,33.23a26.71,26.71,0,0,1,6.58-6.58,41.2,41.2,0,0,0-12-5.4A41.2,41.2,0,0,0,34,33.23Z" transform="translate(-17.4 -10.01)"/><path class="cls-1" d="M17.4,48.4a41,41,0,0,0,12.28,4.65,26.57,26.57,0,0,1,0-9.3A41,41,0,0,0,17.4,48.4Z" transform="translate(-17.4 -10.01)"/><path class="cls-1" d="M34,63.57a41.2,41.2,0,0,0-5.4,12,41.13,41.13,0,0,0,12-5.4A26.84,26.84,0,0,1,34,63.57Z" transform="translate(-17.4 -10.01)"/><path class="cls-1" d="M51.14,74.51a40.69,40.69,0,0,0,4.65,12.28,41,41,0,0,0,4.65-12.28,26.57,26.57,0,0,1-9.3,0Z" transform="translate(-17.4 -10.01)"/><path class="cls-1" d="M71,70.15a41,41,0,0,0,12,5.4,40.61,40.61,0,0,0-5.4-12A26.63,26.63,0,0,1,71,70.15Z" transform="translate(-17.4 -10.01)"/><g class="cls-2"><path class="cls-1" d="M81.9,43.76a25.43,25.43,0,0,0-4.77-.48,21.47,21.47,0,0,0-5,.57,17,17,0,0,1,0,9.11,21.47,21.47,0,0,0,5,.57,25.43,25.43,0,0,0,4.77-.48,27.17,27.17,0,0,0,0-9.29Z" transform="translate(-17.4 -10.01)"/><path class="cls-1" d="M70.59,40.05a21.76,21.76,0,0,0,3.92-3.11,25.9,25.9,0,0,0,3-3.71A26.5,26.5,0,0,0,71,26.66a25.66,25.66,0,0,0-3.71,3,21.21,21.21,0,0,0-3.1,3.91A17,17,0,0,1,70.59,40.05Z" transform="translate(-17.4 -10.01)"/><path class="cls-1" d="M55.79,21.89a27.35,27.35,0,0,0-4.65.4,26.29,26.29,0,0,0-.48,4.77,21.47,21.47,0,0,0,.57,5,17.08,17.08,0,0,1,9.12,0,21.47,21.47,0,0,0,.57-5,25.43,25.43,0,0,0-.48-4.77A27.35,27.35,0,0,0,55.79,21.89Z" transform="translate(-17.4 -10.01)"/><path class="cls-1" d="M40.62,26.65A26.71,26.71,0,0,0,34,33.23a27.06,27.06,0,0,0,3,3.71A21.54,21.54,0,0,0,41,40a17.12,17.12,0,0,1,6.45-6.44,21.6,21.6,0,0,0-3.1-3.92A27.06,27.06,0,0,0,40.62,26.65Z" transform="translate(-17.4 -10.01)"/><path class="cls-1" d="M39.41,53a17.08,17.08,0,0,1,0-9.12,21.47,21.47,0,0,0-5-.57,26.29,26.29,0,0,0-4.77.48,26.57,26.57,0,0,0,0,9.3,26.29,26.29,0,0,0,4.77.48A21.47,21.47,0,0,0,39.41,53Z" transform="translate(-17.4 -10.01)"/><path class="cls-1" d="M41,56.76a21.18,21.18,0,0,0-3.91,3.11,25.66,25.66,0,0,0-3,3.7,26.84,26.84,0,0,0,6.57,6.58,25.9,25.9,0,0,0,3.71-3,21.61,21.61,0,0,0,3.11-3.91A17.14,17.14,0,0,1,41,56.76Z" transform="translate(-17.4 -10.01)"/><path class="cls-1" d="M55.79,65.4a16.74,16.74,0,0,1-4.56-.62,21.47,21.47,0,0,0-.57,5,25.43,25.43,0,0,0,.48,4.77,26.57,26.57,0,0,0,9.3,0,26.29,26.29,0,0,0,.48-4.77,21.47,21.47,0,0,0-.58-5A16.66,16.66,0,0,1,55.79,65.4Z" transform="translate(-17.4 -10.01)"/><path class="cls-1" d="M70.59,56.76a17,17,0,0,1-6.45,6.45,22.05,22.05,0,0,0,3.11,3.91,25.24,25.24,0,0,0,3.71,3,26.63,26.63,0,0,0,6.57-6.57,24.62,24.62,0,0,0-3-3.71A21.7,21.7,0,0,0,70.59,56.76Z" transform="translate(-17.4 -10.01)"/></g><g class="cls-3"><path class="cls-1" d="M72.17,43.85a19.57,19.57,0,0,0-8.72,4.56A19.65,19.65,0,0,0,72.17,53a17,17,0,0,0,0-9.11Z" transform="translate(-17.4 -10.01)"/><path class="cls-1" d="M64.15,33.6A19.69,19.69,0,0,0,61.21,43a19.65,19.65,0,0,0,9.38-2.94A17,17,0,0,0,64.15,33.6Z" transform="translate(-17.4 -10.01)"/><path class="cls-1" d="M51.23,32a19.71,19.71,0,0,0,4.56,8.72A19.61,19.61,0,0,0,60.35,32a17.08,17.08,0,0,0-9.12,0Z" transform="translate(-17.4 -10.01)"/><path class="cls-1" d="M41,40A19.76,19.76,0,0,0,50.37,43a19.69,19.69,0,0,0-2.94-9.38A17.12,17.12,0,0,0,41,40Z" transform="translate(-17.4 -10.01)"/><path class="cls-1" d="M39.41,43.84a17.08,17.08,0,0,0,0,9.12,19.73,19.73,0,0,0,8.71-4.56A19.73,19.73,0,0,0,39.41,43.84Z" transform="translate(-17.4 -10.01)"/><path class="cls-1" d="M47.43,63.21a19.76,19.76,0,0,0,2.94-9.39A19.72,19.72,0,0,0,41,56.76,17.14,17.14,0,0,0,47.43,63.21Z" transform="translate(-17.4 -10.01)"/><path class="cls-1" d="M51.23,64.78a17,17,0,0,0,9.11,0,19.62,19.62,0,0,0-4.55-8.71A19.53,19.53,0,0,0,51.23,64.78Z" transform="translate(-17.4 -10.01)"/><path class="cls-1" d="M64.14,63.21a17,17,0,0,0,6.45-6.45,19.69,19.69,0,0,0-9.38-2.94A19.6,19.6,0,0,0,64.14,63.21Z" transform="translate(-17.4 -10.01)"/></g></g></svg>