<svg id="Layer_1" data-name="Layer 1" xmlns="http://www.w3.org/2000/svg" viewBox="0 0 553.79 228.99"><defs><style>.cls-1{fill:#3d3935;}.cls-2{fill:#2ad2c9;}</style></defs><title>itero-digital-logo-full</title><path class="cls-1" d="M561.51,124a11.37,11.37,0,0,1-6.12,6.12,11.53,11.53,0,0,1-8.93,0,11.43,11.43,0,0,1-6.13-6.12,11.55,11.55,0,0,1,0-8.94,11.43,11.43,0,0,1,6.13-6.12,11.53,11.53,0,0,1,8.93,0,11.37,11.37,0,0,1,6.12,6.12,11.43,11.43,0,0,1,0,8.94m2.28-9.9a14.22,14.22,0,0,0-7.44-7.43,13.81,13.81,0,0,0-10.85,0,14.22,14.22,0,0,0-7.44,7.43,13.84,13.84,0,0,0,0,10.86,14.22,14.22,0,0,0,7.44,7.43,13.81,13.81,0,0,0,10.85,0,14.22,14.22,0,0,0,7.44-7.43,14,14,0,0,0,0-10.86" transform="translate(-11.11 -11.51)"/><path class="cls-1" d="M551.94,118.41c-.41,0-.81,0-1.22,0h-1.93v-4h1.93c.41,0,.81,0,1.22,0a3.12,3.12,0,0,1,1.1.24,1.81,1.81,0,0,1,.8.61,1.84,1.84,0,0,1,.31,1.12,1.86,1.86,0,0,1-.31,1.12,1.89,1.89,0,0,1-.8.61,3.63,3.63,0,0,1-1.1.25m1.42,2.09a4.08,4.08,0,0,0,2.46-1.12,3.8,3.8,0,0,0,1-2.85,4.1,4.1,0,0,0-1.24-3.22,5.59,5.59,0,0,0-3.85-1.12h-5.56V126.6h2.65v-5.9h1.93l3.59,5.9h2.79Z" transform="translate(-11.11 -11.51)"/><path class="cls-1" d="M528.29,173.26a66.49,66.49,0,0,0-19.66-47.37c-13-13-30.69-20.07-49.88-20.07s-36.89,7.12-49.86,20.07a66.29,66.29,0,0,0-19.5,47.37c0,18.23,6.63,35.07,19,47.44,12.72,12.76,30.63,19.79,50.39,19.79s37.67-7,50.41-19.79c12.32-12.37,19.13-29.21,19.13-47.44m-31.24,0c0,20.65-17.89,38.77-38.3,38.77s-38.3-18.12-38.3-38.77a39,39,0,0,1,11.44-27.87,38,38,0,0,1,53.72,0,38.9,38.9,0,0,1,11.44,27.87M339.26,141h38.12V108.59H306.9V238.25h32.36Zm-159.73,44.7H281.16V181.1c0-21.86-6.46-40.64-18.69-54.3s-29.44-21-48.76-21c-19,0-36.19,7.09-48.38,20-11.7,12.36-18.15,29.14-18.15,47.25a67.56,67.56,0,0,0,18,46.58c12.85,13.65,30.83,20.87,52,20.87,21.42,0,39.08-8,55.33-25.15l-20.77-20.81C241.87,206,229.84,212,216.93,212c-10.14,0-19.17-3.1-26.11-9a35.85,35.85,0,0,1-11.29-17.39m-.14-26.17c3.42-12.57,13.79-25.22,34.09-25.22,17,0,30.39,10.15,34.21,25.22ZM120.63,76.23h44.78V43.87H43.49V76.23H88.26v162h32.37Z" transform="translate(-11.11 -11.51)"/><polygon class="cls-1" points="328.15 129.46 366.28 129.46 366.28 97.09 295.79 97.09 295.79 226.74 328.15 226.74 328.15 129.46"/><rect class="cls-1" y="97.09" width="32.36" height="129.65"/><rect class="cls-2" width="32.36" height="32.36"/></svg>