<svg id="Layer_1" data-name="Layer 1" xmlns="http://www.w3.org/2000/svg" xmlns:xlink="http://www.w3.org/1999/xlink" viewBox="0 0 24.55 20"><defs><style>.cls-1,.cls-2,.cls-4{fill:#fff;}.cls-1{clip-rule:evenodd;}.cls-2{fill-rule:evenodd;}.cls-3{clip-path:url(#clip-path);}</style><clipPath id="clip-path"><path class="cls-1" d="M22.08,5c0,.21,0,.43,0,.65A14.27,14.27,0,0,1,7.73,20,14.34,14.34,0,0,1,0,17.73a12.09,12.09,0,0,0,1.21.07,10.15,10.15,0,0,0,6.27-2.16,5.06,5.06,0,0,1-4.72-3.51,5,5,0,0,0,.95.09A5.21,5.21,0,0,0,5,12.05a5.06,5.06,0,0,1-4-5V7a4.93,4.93,0,0,0,2.29.63A5,5,0,0,1,1.7.92,14.32,14.32,0,0,0,12.11,6.2,4.91,4.91,0,0,1,12,5a5.05,5.05,0,0,1,8.73-3.45A10.23,10.23,0,0,0,23.92.36a5.08,5.08,0,0,1-2.22,2.8,10,10,0,0,0,2.89-.8A10.25,10.25,0,0,1,22.08,5"/></clipPath></defs><title>Various_SVGs</title><path class="cls-2" d="M22.08,5c0,.21,0,.43,0,.65A14.27,14.27,0,0,1,7.73,20,14.34,14.34,0,0,1,0,17.73a12.09,12.09,0,0,0,1.21.07,10.15,10.15,0,0,0,6.27-2.16,5.06,5.06,0,0,1-4.72-3.51,5,5,0,0,0,.95.09A5.21,5.21,0,0,0,5,12.05a5.06,5.06,0,0,1-4-5V7a4.93,4.93,0,0,0,2.29.63A5,5,0,0,1,1.7.92,14.32,14.32,0,0,0,12.11,6.2,4.91,4.91,0,0,1,12,5a5.05,5.05,0,0,1,8.73-3.45A10.23,10.23,0,0,0,23.92.36a5.08,5.08,0,0,1-2.22,2.8,10,10,0,0,0,2.89-.8A10.25,10.25,0,0,1,22.08,5"/><g class="cls-3"><rect class="cls-4" x="-2.02" y="-2" width="28.61" height="24"/></g></svg>